{"title":"Hanna 2011 CAM XVID LKRG","uid":6326879,"size":1341332814,"categoryP":"video","categoryS":"movies","magnet":"?xt=urn:btih:9af36b68673773f84821e383309409b193149765&amp;dn=Hanna+2011+CAM+XVID+LKRG&amp;tr=udp%3A%2F%2Ftracker.openbittorrent.com%3A80&amp;tr=udp%3A%2F%2Fopen.demonii.com%3A1337&amp;tr=udp%3A%2F%2Ftracker.coppersurfer.tk%3A6969&amp;tr=udp%3A%2F%2Fexodus.desync.com%3A6969","seeders":0,"leechers":1,"uploader":"SAFCukO09","files":6,"time":1303142107,"description":"Format;AVI\n\nFile Size:1.24gb\n\nVideo\nID                               : 0\nFormat                           : MPEG-4 Visual\nFormat profile                   : Advanced Simple@L5\nFormat settings, BVOP            : Yes\nFormat settings, QPel            : No\nFormat settings, GMC             : No warppoints\nFormat settings, Matrix          : Custom\nCodec ID                         : XVID\nCodec ID/Hint                    : XviD\nDuration                         : 1h 43mn\nBit rate                         : 1 575 Kbps\nWidth                            : 680 pixels\nHeight                           : 294 pixels\nDisplay aspect ratio             : 2.35:1\nFrame rate                       : 23.976 fps\nColor space                      : YUV\nChroma subsampling               : 4:2:0\nBit depth                        : 8 bits\nScan type                        : Progressive\nBits/(Pixel*Frame)               : 0.329\nStream size                      : 1.14 GiB (92%)\nWriting library                  : XviD 1.2.1 (UTC 2008-12-04)\n\nAudio\nID                               : 1\nFormat                           : MPEG Audio\nFormat version                   : Version 1\nFormat profile                   : Layer 3\nCodec ID                         : 55\nCodec ID/Hint                    : MP3\nDuration                         : 1h 43mn\nBit rate mode                    : Constant\nBit rate                         : 128 Kbps\nChannel(s)                       : 2 channels\nSampling rate                    : 44.1 KHz\nStream size                      : 94.7 MiB (7%)\nAlignment                        : Split accross interleaves\nInterleave, duration             : 500 ms (11.98 video frames)\nInterleave, preload duration     : 500 ms\n\nRelease Notes:Video:Own\n\nAudio:Own\n\nAlright here we go with the first cam for hanna, video had small issues here and there nothing major slight out of focus issue occasionally and a head pops n for about\n\n10 seconds about an hour in other then that all good.Usual video filters rgb,slight sharpen crop denoise came out  pretty good.\n\nOn to aduio not bad at all you hear is an occasionall audience laughter here and there no biggie cleaned up audio slightly removed a light hiss thats about it.\n\nAll in all very watchable first cam remeber to d/l sample before the actual file.\n\nEnjoy\n\n\nDuration:1:43\n\nRelease Date:2011\n\nLanguage:English\n\n\n\n\nA 16-year-old who was raised by her father to be the perfect assassin is dispatched on a mission across Europe, tracked by a ruthless intelligence agent and her operatives.\n","torrent":{"xt":"urn:btih:9af36b68673773f84821e383309409b193149765","amp;dn":"Hanna+2011+CAM+XVID+LKRG","amp;tr":["udp%3A%2F%2Ftracker.openbittorrent.com%3A80","udp%3A%2F%2Fopen.demonii.com%3A1337","udp%3A%2F%2Ftracker.coppersurfer.tk%3A6969","udp%3A%2F%2Fexodus.desync.com%3A6969"],"infoHash":"9af36b68673773f84821e383309409b193149765","infoHashBuffer":{"type":"Buffer","data":[154,243,107,104,103,55,115,248,72,33,227,131,48,148,9,177,147,20,151,101]},"announce":[],"urlList":[]}}